<svg id="Layer_1" data-name="Layer 1" xmlns="http://www.w3.org/2000/svg" viewBox="0 0 1200 1200"><defs><style>.cls-1{fill:#e9e8e8;}.cls-2{fill:#9dd5c0;}.cls-3{fill:#fff;}.cls-4{fill:#1d252e;}.cls-5,.cls-6{fill:none;}.cls-5{stroke:#1d252e;stroke-linecap:round;stroke-linejoin:round;stroke-width:3px;}</style></defs><path id="Path-141" class="cls-1" d="M870.65,486.64c-71.06-86-220.28-309.16-411.61-219.95S53.71,887.23,472.66,887.84c157.39.23,384.06,20.78,450.47-39.34C1033.5,748.58,915,540.34,870.65,486.64Z"/><path class="cls-2" d="M341.66,810.48C322,810.48,306,792.8,306,771.07V215.19c0-21.74,16-39.42,35.65-39.42H858.34c19.66,0,35.65,17.68,35.65,39.42V771.07c0,21.73-16,39.41-35.65,39.41Z"/><path class="cls-3" d="M858.34,188.18H341.66c-12.81,0-23.24,12.12-23.24,27V771.07c0,14.88,10.43,27,23.24,27H858.34c12.82,0,23.24-12.12,23.24-27V215.19C881.58,200.3,871.16,188.18,858.34,188.18Z"/><path class="cls-4" d="M827.31,709.28a105.57,105.57,0,1,0-124,83.19A105.56,105.56,0,0,0,827.31,709.28ZM638.07,672a87.3,87.3,0,1,1,68.8,102.51A87.31,87.31,0,0,1,638.07,672Z"/><path class="cls-4" d="M652,1007.65l42-217a9.56,9.56,0,1,1,18.77,3.69l-42,217a9.56,9.56,0,1,1-18.76-3.69Z"/><path class="cls-3" d="M851.38,591.06c-6.42,7.24-32.91,32.19-37.69,35.12s-42.66-12-80.41-23.9c-14.36-3.77-26.36-10.94-17.93-19.35S732.2,580.83,740,588c-.5.25,54.92,14.18,61,12.17,3.26-2.22,17.66-20.82,20.28-22.9"/><path class="cls-5" d="M839.3,604.2c-9.27,8.72-22.14,19.85-25.61,22-4.77,2.93-52.55-13.25-80.41-23.9-14.36-3.77-26.36-10.94-17.93-19.35S730.41,580.54,740,588c-.5.25,54.92,14.18,61,12.17,3.26-2.22,16.82-18,16.82-18"/><path class="cls-2" d="M859.64,573.45c-2.3,18.18-12.23,24-15.35,28.4-10-7.64-14.26-19-25.61-24.36,3.11-16.28,10.46-36.62,18.5-39.31S862.55,544.61,859.64,573.45Z"/><path id="Path-32" class="cls-3" d="M875.21,961.85c.39,6.72.74,22.21.85,24.16.17,2.93,4.09,32.33,1.5,33.13s-80.46,2.16-70.88-4.57,41.77-22.06,41.43-28l-2.06-27Z"/><path id="Path-32-2" data-name="Path-32" class="cls-5" d="M875.3,973l.76,13c.17,2.93,4.09,32.33,1.5,33.13s-80.46,2.16-70.88-4.57,41.77-22.06,41.43-28l-1-9.1"/><path id="Path-33" class="cls-3" d="M781.45,967c-.87,14.65-2.62,34.69-2,38.94a136.26,136.26,0,0,1,1.23,18.28l-70.79-1.9a1.92,1.92,0,0,1-1.67-2.14,1.89,1.89,0,0,1,.94-1.42c31.1-18,44.54-29.77,44.54-32.77l2.87-26.06"/><path id="Path-33-2" data-name="Path-33" class="cls-5" d="M781.75,974.57c-.88,14.65-1.12,42.4-1,49.66l-70.79-1.9a1.92,1.92,0,0,1-1.67-2.14,1.89,1.89,0,0,1,.94-1.42c31.1-18,44.54-30,44.54-33l.81-7.62"/><path class="cls-3" d="M777.88,467.52l-6,12.28c-2.32,7.62-4,17.79-.38,22.14s9.83,5.11,15.45,7.71l-1,22c-7.94.53-11.79,1.24-15.21,3.78,6.55,5.22,16.1,10.4,30.1,8.25s20.07-11,20.07-11l-15.65-2.76,0-21.56c6-3.62,7.31-6.62,7.7-13.54l-.93-7.89-26.48-19.34Z"/><path id="Path-20" class="cls-5" d="M812.7,531.35c-2.46-.54-7.39-1.5-7.39-1.5l0-21.56s7.44-6.62,7.7-12.84"/><path id="Path-21" class="cls-5" d="M772.89,478.57c-3.82,6.09-3.6,12.29-1.45,18.21S787,509.65,787,509.65l-1,22a28.73,28.73,0,0,0-4.52.26"/><path id="Path-31" class="cls-4" d="M750,676.48q-2.68,143.25-5.45,286.5c9.78,2.36,24.86,5.31,33.51,5.84s10.45-.08,16.9-3.12c1.6-76.81,3.47-153.59,5.15-230.39a48.89,48.89,0,0,0,8.89,0,52.58,52.58,0,0,0,8.79-2.2q7.71,115.21,15.36,230.44c8.25,1.72,18.51,3.8,26.4,4.25s13.05-.6,20.3-1.73q-12.14-141.95-24.1-283.88Z"/><path id="Path-23" class="cls-4" d="M814,490.74a42.13,42.13,0,0,1-21.72,1.82c-8.78-3.18-7.26-13.62-7.42-21.05-5.37-6.42-11.06,4.07-13.85-8.34-3.62-16.21,9.74-23.14,27.58-21.42,5.63.54,9.94,3.72,10.83,10,4.1.76,7.67,1.8,9.44,5.79C821.39,468.26,818.08,480.78,814,490.74Z"/><path class="cls-2" d="M744.54,691.73s31.24,9,53.14,8.92,41.47-5.2,62.78-11.62c1-16.34,1.88-106.27-1.66-138.46-.85-7.71-10.17-11.58-17.51-14.11s-16.38-5.14-22.38-5.1c-6.38,7.4-20,7.73-24.14,7.73s-13.62-1.35-17.72-6.72a164.51,164.51,0,0,0-18.82,5.88c-6.4,2.5-5.72,35.27-8.2,41.83C750.47,600.61,744.54,691.73,744.54,691.73Z"/><path id="Path-22" class="cls-5" d="M782.35,473.78l-5.41-.66Z"/><path id="Path-22-2" data-name="Path-22" class="cls-5" d="M782.48,478.18l-5.41-.66Z"/><path class="cls-3" d="M737.35,543c-2.92-9.23-9.76-38.36-8.58-43.85s25.36-22,62.81-34.87c13.8-5.5,27.71-6.86,25.93,4.91s-12.31,11.7-22.89,10.58c.26-.5-35.57,22.4-38.31,28.18-.65,3.89,7.86,13,8.3,16.33"/><path class="cls-5" d="M732.28,525.87c-2.72-12.43-4.37-22.76-3.51-26.74,1.18-5.48,34.08-26.88,62.81-34.87,13.8-5.5,27.71-6.86,25.93,4.91s-10.7,10.88-22.89,10.58c.26-.5-35.57,22.4-38.31,28.18-.65,3.89,5.88,10.84,5.88,10.84"/><path class="cls-2" d="M768.37,522.75c-7.12-1.45-34.74,6.18-36.64,9.46S745.13,570,747.81,576c9,19.54,30.15-25.75,29.24-43.64C777.05,532.37,775.48,524.21,768.37,522.75Z"/><path class="cls-5" d="M747.35,564.55l7.78,16.69s-2.22-1.67-2.78,10.57"/><path class="cls-5" d="M773.89,533.68c1.37,1.72,5.32,6,10.38,6.51"/><path class="cls-1" d="M729.65,363.54H461a3.31,3.31,0,1,1,0-6.62h268.7a3.31,3.31,0,1,1,0,6.62Z"/><path class="cls-1" d="M708.24,392.41H482.35a3.31,3.31,0,0,1,0-6.62H708.24a3.31,3.31,0,0,1,0,6.62Z"/><rect class="cls-1" x="541.94" y="322.52" width="106.72" height="15.14" rx="2.3"/><rect class="cls-6" width="1200" height="1200"/></svg>